<mxfile host="app.diagrams.net" modified="2021-02-04T16:32:29.073Z" agent="5.0 (Windows NT 10.0; WOW64) AppleWebKit/537.36 (KHTML, like Gecko) Chrome/87.0.4280.141 Safari/537.36" etag="yI2yJoGAnSJfxvzfKTiD" version="14.2.6" type="github">
  <diagram id="6a731a19-8d31-9384-78a2-239565b7b9f0" name="Page-1">
    <mxGraphModel dx="981" dy="526" grid="1" gridSize="10" guides="1" tooltips="1" connect="1" arrows="1" fold="1" page="1" pageScale="1" pageWidth="1169" pageHeight="827" background="#ffffff" math="0" shadow="0">
      <root>
        <mxCell id="0" />
        <mxCell id="1" parent="0" />
        <mxCell id="LiS_Lb4SlL0UIauHzDDL-1807" style="edgeStyle=orthogonalEdgeStyle;rounded=0;orthogonalLoop=1;jettySize=auto;html=1;entryX=0;entryY=0.5;entryDx=0;entryDy=0;curved=1;" edge="1" parent="1" source="LiS_Lb4SlL0UIauHzDDL-1803" target="LiS_Lb4SlL0UIauHzDDL-1806">
          <mxGeometry relative="1" as="geometry" />
        </mxCell>
        <mxCell id="LiS_Lb4SlL0UIauHzDDL-1812" style="edgeStyle=orthogonalEdgeStyle;curved=1;rounded=0;orthogonalLoop=1;jettySize=auto;html=1;entryX=0;entryY=0.5;entryDx=0;entryDy=0;" edge="1" parent="1" source="LiS_Lb4SlL0UIauHzDDL-1803" target="LiS_Lb4SlL0UIauHzDDL-1805">
          <mxGeometry relative="1" as="geometry" />
        </mxCell>
        <UserObject label="scheduler" treeRoot="1" id="LiS_Lb4SlL0UIauHzDDL-1803">
          <mxCell style="ellipse;whiteSpace=wrap;html=1;align=center;collapsible=0;container=1;recursiveResize=0;" vertex="1" parent="1">
            <mxGeometry x="200" y="363" width="80" height="50" as="geometry" />
          </mxCell>
        </UserObject>
        <mxCell id="LiS_Lb4SlL0UIauHzDDL-1821" style="edgeStyle=orthogonalEdgeStyle;curved=1;rounded=0;orthogonalLoop=1;jettySize=auto;html=1;entryX=0;entryY=0.5;entryDx=0;entryDy=0;" edge="1" parent="1" source="LiS_Lb4SlL0UIauHzDDL-1805" target="LiS_Lb4SlL0UIauHzDDL-1819">
          <mxGeometry relative="1" as="geometry" />
        </mxCell>
        <mxCell id="LiS_Lb4SlL0UIauHzDDL-1805" value="调度流程&lt;br&gt;" style="whiteSpace=wrap;html=1;rounded=1;arcSize=50;align=center;verticalAlign=middle;collapsible=0;container=1;recursiveResize=0;strokeWidth=1;autosize=1;spacing=4;" vertex="1" parent="1">
          <mxGeometry x="450" y="490" width="90" height="30" as="geometry" />
        </mxCell>
        <mxCell id="LiS_Lb4SlL0UIauHzDDL-1809" style="edgeStyle=orthogonalEdgeStyle;curved=1;rounded=0;orthogonalLoop=1;jettySize=auto;html=1;entryX=0;entryY=0.5;entryDx=0;entryDy=0;" edge="1" parent="1" source="LiS_Lb4SlL0UIauHzDDL-1806" target="LiS_Lb4SlL0UIauHzDDL-1808">
          <mxGeometry relative="1" as="geometry" />
        </mxCell>
        <mxCell id="LiS_Lb4SlL0UIauHzDDL-1811" style="edgeStyle=orthogonalEdgeStyle;curved=1;rounded=0;orthogonalLoop=1;jettySize=auto;html=1;" edge="1" parent="1" source="LiS_Lb4SlL0UIauHzDDL-1806" target="LiS_Lb4SlL0UIauHzDDL-1810">
          <mxGeometry relative="1" as="geometry" />
        </mxCell>
        <mxCell id="LiS_Lb4SlL0UIauHzDDL-1814" style="edgeStyle=orthogonalEdgeStyle;curved=1;rounded=0;orthogonalLoop=1;jettySize=auto;html=1;entryX=0;entryY=0.5;entryDx=0;entryDy=0;" edge="1" parent="1" source="LiS_Lb4SlL0UIauHzDDL-1806" target="LiS_Lb4SlL0UIauHzDDL-1813">
          <mxGeometry relative="1" as="geometry" />
        </mxCell>
        <mxCell id="LiS_Lb4SlL0UIauHzDDL-1816" style="edgeStyle=orthogonalEdgeStyle;curved=1;rounded=0;orthogonalLoop=1;jettySize=auto;html=1;entryX=0;entryY=0.5;entryDx=0;entryDy=0;" edge="1" parent="1" source="LiS_Lb4SlL0UIauHzDDL-1806" target="LiS_Lb4SlL0UIauHzDDL-1815">
          <mxGeometry relative="1" as="geometry" />
        </mxCell>
        <mxCell id="LiS_Lb4SlL0UIauHzDDL-1806" value="特性" style="whiteSpace=wrap;html=1;rounded=1;arcSize=50;align=center;verticalAlign=middle;collapsible=0;container=1;recursiveResize=0;strokeWidth=1;autosize=1;spacing=4;" vertex="1" parent="1">
          <mxGeometry x="640" y="132" width="69" height="30" as="geometry" />
        </mxCell>
        <mxCell id="LiS_Lb4SlL0UIauHzDDL-1808" value="公平性" style="whiteSpace=wrap;html=1;rounded=1;arcSize=50;align=center;verticalAlign=middle;collapsible=0;container=1;recursiveResize=0;strokeWidth=1;autosize=1;spacing=4;" vertex="1" parent="1">
          <mxGeometry x="859" y="40" width="60" height="30" as="geometry" />
        </mxCell>
        <mxCell id="LiS_Lb4SlL0UIauHzDDL-1810" value="资源高效利用" style="whiteSpace=wrap;html=1;rounded=1;arcSize=50;align=center;verticalAlign=middle;collapsible=0;container=1;recursiveResize=0;strokeWidth=1;autosize=1;spacing=4;" vertex="1" parent="1">
          <mxGeometry x="849" y="102" width="100" height="30" as="geometry" />
        </mxCell>
        <mxCell id="LiS_Lb4SlL0UIauHzDDL-1813" value="效率问题" style="whiteSpace=wrap;html=1;rounded=1;arcSize=50;align=center;verticalAlign=middle;collapsible=0;container=1;recursiveResize=0;strokeWidth=1;autosize=1;spacing=4;" vertex="1" parent="1">
          <mxGeometry x="864" y="150" width="70" height="30" as="geometry" />
        </mxCell>
        <mxCell id="LiS_Lb4SlL0UIauHzDDL-1815" value="灵活性" style="whiteSpace=wrap;html=1;rounded=1;arcSize=50;align=center;verticalAlign=middle;collapsible=0;container=1;recursiveResize=0;strokeWidth=1;autosize=1;spacing=4;" vertex="1" parent="1">
          <mxGeometry x="869" y="203" width="60" height="30" as="geometry" />
        </mxCell>
        <mxCell id="LiS_Lb4SlL0UIauHzDDL-1817" style="edgeStyle=orthogonalEdgeStyle;curved=1;rounded=0;orthogonalLoop=1;jettySize=auto;html=1;entryX=0;entryY=0.5;entryDx=0;entryDy=0;" edge="1" target="LiS_Lb4SlL0UIauHzDDL-1818" source="LiS_Lb4SlL0UIauHzDDL-1805" parent="1">
          <mxGeometry relative="1" as="geometry">
            <mxPoint x="340" y="392" as="sourcePoint" />
          </mxGeometry>
        </mxCell>
        <mxCell id="LiS_Lb4SlL0UIauHzDDL-1827" style="edgeStyle=orthogonalEdgeStyle;curved=1;rounded=0;orthogonalLoop=1;jettySize=auto;html=1;entryX=0;entryY=0.75;entryDx=0;entryDy=0;" edge="1" parent="1" source="LiS_Lb4SlL0UIauHzDDL-1818" target="LiS_Lb4SlL0UIauHzDDL-1822">
          <mxGeometry relative="1" as="geometry" />
        </mxCell>
        <mxCell id="LiS_Lb4SlL0UIauHzDDL-1828" style="edgeStyle=orthogonalEdgeStyle;curved=1;rounded=0;orthogonalLoop=1;jettySize=auto;html=1;entryX=0;entryY=0.5;entryDx=0;entryDy=0;" edge="1" parent="1" source="LiS_Lb4SlL0UIauHzDDL-1818" target="LiS_Lb4SlL0UIauHzDDL-1823">
          <mxGeometry relative="1" as="geometry" />
        </mxCell>
        <mxCell id="LiS_Lb4SlL0UIauHzDDL-1829" style="edgeStyle=orthogonalEdgeStyle;curved=1;rounded=0;orthogonalLoop=1;jettySize=auto;html=1;" edge="1" parent="1" source="LiS_Lb4SlL0UIauHzDDL-1818" target="LiS_Lb4SlL0UIauHzDDL-1824">
          <mxGeometry relative="1" as="geometry" />
        </mxCell>
        <mxCell id="LiS_Lb4SlL0UIauHzDDL-1830" style="edgeStyle=orthogonalEdgeStyle;curved=1;rounded=0;orthogonalLoop=1;jettySize=auto;html=1;entryX=0;entryY=0.5;entryDx=0;entryDy=0;" edge="1" parent="1" source="LiS_Lb4SlL0UIauHzDDL-1818" target="LiS_Lb4SlL0UIauHzDDL-1825">
          <mxGeometry relative="1" as="geometry" />
        </mxCell>
        <mxCell id="LiS_Lb4SlL0UIauHzDDL-1831" style="edgeStyle=orthogonalEdgeStyle;curved=1;rounded=0;orthogonalLoop=1;jettySize=auto;html=1;entryX=0;entryY=0.5;entryDx=0;entryDy=0;" edge="1" parent="1" source="LiS_Lb4SlL0UIauHzDDL-1818" target="LiS_Lb4SlL0UIauHzDDL-1826">
          <mxGeometry relative="1" as="geometry" />
        </mxCell>
        <mxCell id="LiS_Lb4SlL0UIauHzDDL-1818" value="预选" style="whiteSpace=wrap;html=1;rounded=1;arcSize=50;align=center;verticalAlign=middle;collapsible=0;container=1;recursiveResize=0;strokeWidth=1;autosize=1;spacing=4;" vertex="1" parent="1">
          <mxGeometry x="710" y="397" width="60" height="30" as="geometry" />
        </mxCell>
        <mxCell id="LiS_Lb4SlL0UIauHzDDL-1854" style="edgeStyle=orthogonalEdgeStyle;curved=1;rounded=0;orthogonalLoop=1;jettySize=auto;html=1;entryX=0;entryY=0.75;entryDx=0;entryDy=0;" edge="1" parent="1" source="LiS_Lb4SlL0UIauHzDDL-1819" target="LiS_Lb4SlL0UIauHzDDL-1834">
          <mxGeometry relative="1" as="geometry" />
        </mxCell>
        <mxCell id="LiS_Lb4SlL0UIauHzDDL-1855" style="edgeStyle=orthogonalEdgeStyle;curved=1;rounded=0;orthogonalLoop=1;jettySize=auto;html=1;entryX=0;entryY=0.5;entryDx=0;entryDy=0;" edge="1" parent="1" source="LiS_Lb4SlL0UIauHzDDL-1819" target="LiS_Lb4SlL0UIauHzDDL-1836">
          <mxGeometry relative="1" as="geometry" />
        </mxCell>
        <mxCell id="LiS_Lb4SlL0UIauHzDDL-1856" style="edgeStyle=orthogonalEdgeStyle;curved=1;rounded=0;orthogonalLoop=1;jettySize=auto;html=1;entryX=0;entryY=0.5;entryDx=0;entryDy=0;" edge="1" parent="1" source="LiS_Lb4SlL0UIauHzDDL-1819" target="LiS_Lb4SlL0UIauHzDDL-1853">
          <mxGeometry relative="1" as="geometry" />
        </mxCell>
        <mxCell id="LiS_Lb4SlL0UIauHzDDL-1857" style="edgeStyle=orthogonalEdgeStyle;curved=1;rounded=0;orthogonalLoop=1;jettySize=auto;html=1;entryX=0;entryY=0.5;entryDx=0;entryDy=0;" edge="1" parent="1" source="LiS_Lb4SlL0UIauHzDDL-1819" target="LiS_Lb4SlL0UIauHzDDL-1838">
          <mxGeometry relative="1" as="geometry" />
        </mxCell>
        <mxCell id="LiS_Lb4SlL0UIauHzDDL-1858" style="edgeStyle=orthogonalEdgeStyle;curved=1;rounded=0;orthogonalLoop=1;jettySize=auto;html=1;entryX=0;entryY=0.5;entryDx=0;entryDy=0;" edge="1" parent="1" source="LiS_Lb4SlL0UIauHzDDL-1819" target="LiS_Lb4SlL0UIauHzDDL-1839">
          <mxGeometry relative="1" as="geometry" />
        </mxCell>
        <mxCell id="LiS_Lb4SlL0UIauHzDDL-1859" style="edgeStyle=orthogonalEdgeStyle;curved=1;rounded=0;orthogonalLoop=1;jettySize=auto;html=1;entryX=0;entryY=0.5;entryDx=0;entryDy=0;" edge="1" parent="1" source="LiS_Lb4SlL0UIauHzDDL-1819" target="LiS_Lb4SlL0UIauHzDDL-1840">
          <mxGeometry relative="1" as="geometry" />
        </mxCell>
        <mxCell id="LiS_Lb4SlL0UIauHzDDL-1860" style="edgeStyle=orthogonalEdgeStyle;curved=1;rounded=0;orthogonalLoop=1;jettySize=auto;html=1;entryX=0;entryY=0.5;entryDx=0;entryDy=0;" edge="1" parent="1" source="LiS_Lb4SlL0UIauHzDDL-1819" target="LiS_Lb4SlL0UIauHzDDL-1841">
          <mxGeometry relative="1" as="geometry" />
        </mxCell>
        <mxCell id="LiS_Lb4SlL0UIauHzDDL-1861" style="edgeStyle=orthogonalEdgeStyle;curved=1;rounded=0;orthogonalLoop=1;jettySize=auto;html=1;entryX=0;entryY=0.5;entryDx=0;entryDy=0;" edge="1" parent="1" source="LiS_Lb4SlL0UIauHzDDL-1819" target="LiS_Lb4SlL0UIauHzDDL-1842">
          <mxGeometry relative="1" as="geometry" />
        </mxCell>
        <mxCell id="LiS_Lb4SlL0UIauHzDDL-1862" style="edgeStyle=orthogonalEdgeStyle;curved=1;rounded=0;orthogonalLoop=1;jettySize=auto;html=1;entryX=0;entryY=0.5;entryDx=0;entryDy=0;" edge="1" parent="1" source="LiS_Lb4SlL0UIauHzDDL-1819" target="LiS_Lb4SlL0UIauHzDDL-1850">
          <mxGeometry relative="1" as="geometry" />
        </mxCell>
        <mxCell id="LiS_Lb4SlL0UIauHzDDL-1819" value="优选" style="whiteSpace=wrap;html=1;rounded=1;arcSize=50;align=center;verticalAlign=middle;collapsible=0;container=1;recursiveResize=0;strokeWidth=1;autosize=1;spacing=4;" vertex="1" parent="1">
          <mxGeometry x="640" y="745" width="70" height="30" as="geometry" />
        </mxCell>
        <mxCell id="LiS_Lb4SlL0UIauHzDDL-1822" value="存储容量判断" style="whiteSpace=wrap;html=1;rounded=1;arcSize=50;align=center;verticalAlign=middle;collapsible=0;container=1;recursiveResize=0;strokeWidth=1;autosize=1;spacing=4;" vertex="1" parent="1">
          <mxGeometry x="860" y="292" width="100" height="30" as="geometry" />
        </mxCell>
        <mxCell id="LiS_Lb4SlL0UIauHzDDL-1823" value="资源压力判断" style="whiteSpace=wrap;html=1;rounded=1;arcSize=50;align=center;verticalAlign=middle;collapsible=0;container=1;recursiveResize=0;strokeWidth=1;autosize=1;spacing=4;" vertex="1" parent="1">
          <mxGeometry x="868" y="355" width="100" height="30" as="geometry" />
        </mxCell>
        <mxCell id="LiS_Lb4SlL0UIauHzDDL-1824" value="卷冲突判断" style="whiteSpace=wrap;html=1;rounded=1;arcSize=50;align=center;verticalAlign=middle;collapsible=0;container=1;recursiveResize=0;strokeWidth=1;autosize=1;spacing=4;" vertex="1" parent="1">
          <mxGeometry x="878" y="397" width="80" height="30" as="geometry" />
        </mxCell>
        <mxCell id="LiS_Lb4SlL0UIauHzDDL-1825" value="约束关系判断" style="whiteSpace=wrap;html=1;rounded=1;arcSize=50;align=center;verticalAlign=middle;collapsible=0;container=1;recursiveResize=0;strokeWidth=1;autosize=1;spacing=4;" vertex="1" parent="1">
          <mxGeometry x="878" y="442" width="100" height="30" as="geometry" />
        </mxCell>
        <mxCell id="LiS_Lb4SlL0UIauHzDDL-1826" value="适合性判断" style="whiteSpace=wrap;html=1;rounded=1;arcSize=50;align=center;verticalAlign=middle;collapsible=0;container=1;recursiveResize=0;strokeWidth=1;autosize=1;spacing=4;" vertex="1" parent="1">
          <mxGeometry x="878" y="504" width="80" height="30" as="geometry" />
        </mxCell>
        <mxCell id="LiS_Lb4SlL0UIauHzDDL-1834" value="&lt;span style=&quot;font-family: &amp;#34;pingfang sc&amp;#34; , &amp;#34;microsoft yahei&amp;#34; , &amp;#34;helvetica neue&amp;#34; , &amp;#34;helvetica&amp;#34; , &amp;#34;arial&amp;#34; , sans-serif ; font-size: 14px ; text-align: left ; background-color: rgba(255 , 255 , 255 , 0.5)&quot;&gt;LeastRequestedPriority&lt;/span&gt;" style="whiteSpace=wrap;html=1;rounded=1;arcSize=50;align=center;verticalAlign=middle;collapsible=0;container=1;recursiveResize=0;strokeWidth=1;autosize=1;spacing=4;" vertex="1" parent="1">
          <mxGeometry x="830" y="590" width="180" height="30" as="geometry" />
        </mxCell>
        <mxCell id="LiS_Lb4SlL0UIauHzDDL-1836" value="&lt;span style=&quot;font-family: &amp;#34;pingfang sc&amp;#34; , &amp;#34;microsoft yahei&amp;#34; , &amp;#34;helvetica neue&amp;#34; , &amp;#34;helvetica&amp;#34; , &amp;#34;arial&amp;#34; , sans-serif ; font-size: 14px ; text-align: left ; background-color: rgba(255 , 255 , 255 , 0.5)&quot;&gt;BalancedResourceAllocation&lt;/span&gt;" style="whiteSpace=wrap;html=1;rounded=1;arcSize=50;align=center;verticalAlign=middle;collapsible=0;container=1;recursiveResize=0;strokeWidth=1;autosize=1;spacing=4;" vertex="1" parent="1">
          <mxGeometry x="832" y="630" width="210" height="30" as="geometry" />
        </mxCell>
        <mxCell id="LiS_Lb4SlL0UIauHzDDL-1838" value="&lt;span style=&quot;font-family: &amp;#34;pingfang sc&amp;#34; , &amp;#34;microsoft yahei&amp;#34; , &amp;#34;helvetica neue&amp;#34; , &amp;#34;helvetica&amp;#34; , &amp;#34;arial&amp;#34; , sans-serif ; font-size: 14px ; text-align: left ; background-color: rgba(255 , 255 , 255 , 0.5)&quot;&gt;SelectorSpreadPriority&lt;/span&gt;" style="whiteSpace=wrap;html=1;rounded=1;arcSize=50;align=center;verticalAlign=middle;collapsible=0;container=1;recursiveResize=0;strokeWidth=1;autosize=1;spacing=4;" vertex="1" parent="1">
          <mxGeometry x="832" y="710" width="170" height="30" as="geometry" />
        </mxCell>
        <mxCell id="LiS_Lb4SlL0UIauHzDDL-1839" value="&lt;span style=&quot;font-family: &amp;#34;pingfang sc&amp;#34; , &amp;#34;microsoft yahei&amp;#34; , &amp;#34;helvetica neue&amp;#34; , &amp;#34;helvetica&amp;#34; , &amp;#34;arial&amp;#34; , sans-serif ; font-size: 14px ; text-align: left ; background-color: rgba(255 , 255 , 255 , 0.5)&quot;&gt;NodeAffinityPriority&lt;/span&gt;" style="whiteSpace=wrap;html=1;rounded=1;arcSize=50;align=center;verticalAlign=middle;collapsible=0;container=1;recursiveResize=0;strokeWidth=1;autosize=1;spacing=4;" vertex="1" parent="1">
          <mxGeometry x="837" y="747" width="160" height="30" as="geometry" />
        </mxCell>
        <mxCell id="LiS_Lb4SlL0UIauHzDDL-1840" value="&#xa;&#xa;&lt;span style=&quot;color: rgb(0, 0, 0); font-family: &amp;quot;pingfang sc&amp;quot;, &amp;quot;microsoft yahei&amp;quot;, &amp;quot;helvetica neue&amp;quot;, helvetica, arial, sans-serif; font-size: 14px; font-style: normal; font-weight: 400; letter-spacing: normal; text-align: left; text-indent: 0px; text-transform: none; word-spacing: 0px; background-color: rgba(255, 255, 255, 0.5); display: inline; float: none;&quot;&gt;InterPodAffinityPriority&lt;/span&gt;&#xa;&#xa;" style="whiteSpace=wrap;html=1;rounded=1;arcSize=50;align=center;verticalAlign=middle;collapsible=0;container=1;recursiveResize=0;strokeWidth=1;autosize=1;spacing=4;" vertex="1" parent="1">
          <mxGeometry x="836.25" y="788" width="170.5" height="30" as="geometry" />
        </mxCell>
        <mxCell id="LiS_Lb4SlL0UIauHzDDL-1841" value="&lt;span style=&quot;font-family: &amp;#34;pingfang sc&amp;#34; , &amp;#34;microsoft yahei&amp;#34; , &amp;#34;helvetica neue&amp;#34; , &amp;#34;helvetica&amp;#34; , &amp;#34;arial&amp;#34; , sans-serif ; font-size: 14px ; text-align: left ; background-color: rgba(255 , 255 , 255 , 0.5)&quot;&gt;NodePreferAvoidPodsPriority&lt;/span&gt;" style="whiteSpace=wrap;html=1;rounded=1;arcSize=50;align=center;verticalAlign=middle;collapsible=0;container=1;recursiveResize=0;strokeWidth=1;autosize=1;spacing=4;" vertex="1" parent="1">
          <mxGeometry x="840" y="830" width="220" height="30" as="geometry" />
        </mxCell>
        <mxCell id="LiS_Lb4SlL0UIauHzDDL-1842" value="&lt;span style=&quot;font-family: &amp;#34;pingfang sc&amp;#34; , &amp;#34;microsoft yahei&amp;#34; , &amp;#34;helvetica neue&amp;#34; , &amp;#34;helvetica&amp;#34; , &amp;#34;arial&amp;#34; , sans-serif ; font-size: 14px ; text-align: left ; background-color: rgba(255 , 255 , 255 , 0.5)&quot;&gt;ImageLocalityPriority&lt;/span&gt;" style="whiteSpace=wrap;html=1;rounded=1;arcSize=50;align=center;verticalAlign=middle;collapsible=0;container=1;recursiveResize=0;strokeWidth=1;autosize=1;spacing=4;" vertex="1" parent="1">
          <mxGeometry x="841.5" y="870" width="160" height="30" as="geometry" />
        </mxCell>
        <mxCell id="LiS_Lb4SlL0UIauHzDDL-1850" value="&#xa;&#xa;&lt;span style=&quot;color: rgb(0, 0, 0); font-family: &amp;quot;pingfang sc&amp;quot;, &amp;quot;microsoft yahei&amp;quot;, &amp;quot;helvetica neue&amp;quot;, helvetica, arial, sans-serif; font-size: 14px; font-style: normal; font-weight: 400; letter-spacing: normal; text-align: left; text-indent: 0px; text-transform: none; word-spacing: 0px; background-color: rgba(255, 255, 255, 0.5); display: inline; float: none;&quot;&gt;MostRequestedPriority&lt;/span&gt;&#xa;&#xa;" style="whiteSpace=wrap;html=1;rounded=1;arcSize=50;align=center;verticalAlign=middle;collapsible=0;container=1;recursiveResize=0;strokeWidth=1;autosize=1;spacing=4;" vertex="1" parent="1">
          <mxGeometry x="840" y="910" width="158" height="30" as="geometry" />
        </mxCell>
        <mxCell id="LiS_Lb4SlL0UIauHzDDL-1853" value="&lt;span style=&quot;font-family: &amp;#34;pingfang sc&amp;#34; , &amp;#34;microsoft yahei&amp;#34; , &amp;#34;helvetica neue&amp;#34; , &amp;#34;helvetica&amp;#34; , &amp;#34;arial&amp;#34; , sans-serif ; font-size: 14px ; text-align: left ; background-color: rgba(255 , 255 , 255 , 0.5)&quot;&gt;SelectorSpreadPriority&lt;/span&gt;" style="whiteSpace=wrap;html=1;rounded=1;arcSize=50;align=center;verticalAlign=middle;collapsible=0;container=1;recursiveResize=0;strokeWidth=1;autosize=1;spacing=4;" vertex="1" parent="1">
          <mxGeometry x="832" y="670" width="170" height="30" as="geometry" />
        </mxCell>
        <mxCell id="LiS_Lb4SlL0UIauHzDDL-1865" value="https://img2018.cnblogs.com/blog/1079767/201907/1079767-20190702113948482-1111845689.png" style="text;html=1;" vertex="1" parent="1">
          <mxGeometry x="619" y="540" width="550" height="20" as="geometry" />
        </mxCell>
      </root>
    </mxGraphModel>
  </diagram>
</mxfile>
